<?xml version="1.0" standalone="no"?><!DOCTYPE svg PUBLIC "-//W3C//DTD SVG 1.1//EN" "http://www.w3.org/Graphics/SVG/1.1/DTD/svg11.dtd"><svg t="1545273361160" class="icon" style="" viewBox="0 0 1024 1024" version="1.1" xmlns="http://www.w3.org/2000/svg" p-id="4683" xmlns:xlink="http://www.w3.org/1999/xlink" width="100" height="100"><defs><style type="text/css"></style></defs><path d="M695.1423 782.791111V931.181287a9.980507 9.980507 0 0 1-9.980507 9.980506h-91.820662a9.980507 9.980507 0 0 1-9.980507-9.980506V698.635478h2.994152c150.44616 0 272.996803-119.316959 278.25653-268.475634h114.835712C974.955789 601.275634 855.299493 743.687485 695.1423 782.791111zM527.649435 568.888889s-199.799766-109.241637-265.182067-225.919751A185.26715 185.26715 0 0 1 237.037037 249.013645C237.037037 146.214425 320.374269 62.877193 423.173489 62.877193A185.255173 185.255173 0 0 1 526.471735 94.158097 185.255173 185.255173 0 0 1 629.769981 62.877193c102.79922 0 186.136452 83.337232 186.136452 186.136452a186.229271 186.229271 0 0 1-7.07618 51.015361C778.100273 431.304608 527.649435 568.888889 527.649435 568.888889zM462.596491 698.565614V931.181287a9.980507 9.980507 0 0 1-9.980507 9.980506h-91.820662a9.980507 9.980507 0 0 1-9.980507-9.980506V780.475634C195.188772 738.327953 79.893957 598.06191 75.482573 430.159844H190.328265c5.179883 147.172554 124.576686 265.281871 272.268226 268.40577z" fill="#ffffff" p-id="4684"></path></svg>